<svg xmlns="http://www.w3.org/2000/svg" opacity="1" width="120" height="120" viewBox="0 0 512 512">
        <path fill="#FFFFFF" d="M166,192C162,182,246,52,255,53,264,54,312,132,311,141,311,150,226,229,215,226,205,222,170,202,166,192zM10,435C4,423,69,324,86,318,103,312,250,367,256,382,262,396,254,430,245,435,236,439,16,446,10,435zM358,435C346,426,341,305,358,296,375,287,390,275,401,279,412,283,507,423,501,435,495,446,370,443,358,435zM166,192C162,182,246,52,255,53,264,54,312,132,311,141,311,150,226,229,215,226,205,222,170,202,166,192zM10,435C4,423,69,324,86,318,103,312,250,367,256,382,262,396,254,430,245,435,236,439,16,446,10,435zM358,435C346,426,341,305,358,296,375,287,390,275,401,279,412,283,507,423,501,435,495,446,370,443,358,435z"></path>
      </svg>