<svg width="642" height="521" viewBox="0 0 642 521" fill="none" xmlns="http://www.w3.org/2000/svg">
<path d="M206.214 187.146C201.182 174.012 309.039 3.38433 320.472 5.01156C331.905 6.63879 393.8 108.621 393.017 120.278C392.235 131.936 282.404 236.078 269.086 231.724C255.768 227.37 211.245 200.279 206.214 187.146Z" fill="white"/>
<path d="M5.50532 506.199C-2.22927 491.554 81.0554 360.341 102.837 352.722C124.618 345.103 314.551 417.814 321.681 436.784C328.811 455.755 319.228 499.69 307.777 506.199C296.326 512.708 13.2399 520.844 5.50532 506.199Z" fill="white"/>
<path d="M452.867 506.199C437.7 494.808 431.513 335.571 452.867 324.065C474.222 312.558 493.585 297.148 507.881 302.412C522.176 307.677 644.383 491.554 636.648 506.199C628.914 520.844 468.034 517.589 452.867 506.199Z" fill="white"/>
<path d="M206.214 187.146C201.182 174.012 309.039 3.38433 320.472 5.01156C331.905 6.63879 393.8 108.621 393.017 120.278C392.235 131.936 282.404 236.078 269.086 231.724C255.768 227.37 211.245 200.279 206.214 187.146Z" stroke="white" stroke-width="10"/>
<path d="M5.50532 506.199C-2.22927 491.554 81.0554 360.341 102.837 352.722C124.618 345.103 314.551 417.814 321.681 436.784C328.811 455.755 319.228 499.69 307.777 506.199C296.326 512.708 13.2399 520.844 5.50532 506.199Z" stroke="white" stroke-width="10"/>
<path d="M452.867 506.199C437.7 494.808 431.513 335.571 452.867 324.065C474.222 312.558 493.585 297.148 507.881 302.412C522.176 307.677 644.383 491.554 636.648 506.199C628.914 520.844 468.034 517.589 452.867 506.199Z" stroke="white" stroke-width="10"/>
</svg>
