<svg width="956" height="766" viewBox="0 0 956 766" fill="none" xmlns="http://www.w3.org/2000/svg">
<path d="M306.184 274.476C298.652 255.045 460.097 2.6097 477.21 5.01711C494.323 7.42452 586.969 158.302 585.798 175.549C584.627 192.795 420.228 346.869 400.293 340.427C380.359 333.985 313.716 293.906 306.184 274.476Z" fill="white"/>
<path d="M5.75638 746.5C-5.82103 724.833 118.842 530.711 151.445 519.438C184.049 508.166 468.347 615.738 479.02 643.804C489.692 671.87 475.347 736.87 458.207 746.5C441.067 756.129 17.3338 768.166 5.75638 746.5Z" fill="white"/>
<path d="M675.383 746.5C652.681 729.648 643.419 494.064 675.383 477.041C707.348 460.018 736.331 437.219 757.729 445.007C779.128 452.795 962.051 724.833 950.473 746.5C938.896 768.166 698.086 763.351 675.383 746.5Z" fill="white"/>
<path d="M306.184 274.476C298.652 255.045 460.097 2.6097 477.21 5.01711C494.323 7.42452 586.969 158.302 585.798 175.549C584.627 192.795 420.228 346.869 400.293 340.427C380.359 333.985 313.716 293.906 306.184 274.476Z" stroke="white" stroke-width="10"/>
<path d="M5.75638 746.5C-5.82103 724.833 118.842 530.711 151.445 519.438C184.049 508.166 468.347 615.738 479.02 643.804C489.692 671.87 475.347 736.87 458.207 746.5C441.067 756.129 17.3338 768.166 5.75638 746.5Z" stroke="white" stroke-width="10"/>
<path d="M675.383 746.5C652.681 729.648 643.419 494.064 675.383 477.041C707.348 460.018 736.331 437.219 757.729 445.007C779.128 452.795 962.051 724.833 950.473 746.5C938.896 768.166 698.086 763.351 675.383 746.5Z" stroke="white" stroke-width="10"/>
</svg>
